<svg width="205" height="185" viewBox="0 0 205 185" fill="none" xmlns="http://www.w3.org/2000/svg">
<path d="M13.9519 172.835C12.9675 172.835 11.981 172.882 11.0176 172.976L10.8774 172.99C4.48746 173.64 -0.186507 177.413 0.00571956 181.766L0.0428799 182.553C0.0673892 183.051 0.0934988 183.585 0.114989 184.179C0.126628 184.472 0.473535 184.696 0.905196 184.696H158.083C169.165 184.619 180.206 184.521 190.899 184.406C192.906 184.411 194.911 184.292 196.903 184.048C199.875 183.643 201.937 182.841 203.209 181.595H203.21C204.791 180.049 204.841 178.104 204.746 175.905C204.551 171.466 204.358 166.802 204.165 162.153C203.994 158.055 203.825 153.968 203.655 150.056C203.55 147.734 203.317 145.684 201.521 144.118C199.574 142.424 196.024 141.565 190.968 141.565C190.907 141.565 190.846 141.565 190.785 141.566C174.94 141.631 159.241 147.902 151.719 157.172C150.853 158.24 150.046 159.383 149.265 160.488C148.124 162.185 146.865 163.799 145.497 165.319C144.737 166.138 143.903 166.886 143.007 167.553C142.946 167.602 142.876 167.654 142.802 167.703C142.633 167.83 142.456 167.952 142.284 168.061C141.287 168.726 140.223 169.283 139.109 169.723L138.998 169.766C138.914 169.8 138.823 169.835 138.733 169.866C138.09 170.103 137.436 170.305 136.772 170.47C133.904 171.197 130.644 171.372 127.082 170.988C123.792 170.621 120.557 169.862 117.447 168.727C114.148 167.527 111.061 166.031 108.075 164.584C106.763 163.948 105.406 163.291 104.051 162.668C103.797 162.55 103.546 162.436 103.292 162.321C101.637 161.579 100.137 160.966 98.7056 160.447C95.1894 159.162 91.5103 158.378 87.776 158.116C83.8354 157.868 80.3628 158.336 77.4571 159.505C76.6499 159.829 75.8695 160.217 75.123 160.663C71.6814 162.721 69.5596 165.757 67.508 168.694C64.9558 172.347 62.3166 176.124 57.1053 178.082C51.092 180.344 42.3145 179.404 36.1045 177.77C34.1521 177.256 32.2021 176.665 30.3161 176.094C29.5544 175.863 28.7922 175.633 28.0295 175.405C26.5306 174.96 25.3039 174.619 24.169 174.33L23.8101 174.239C23.6104 174.189 23.4105 174.139 23.2071 174.091C21.859 173.765 20.6038 173.509 19.3677 173.307L19.0752 173.258C18.4889 173.169 17.9407 173.095 17.4028 173.033L17.1881 173.008C16.1133 172.892 15.033 172.834 13.9519 172.835Z" fill="#F2F2F2"/>
<path d="M99.5477 87.8059C99.0744 87.8741 98.5919 87.8379 98.1342 87.6996C97.6764 87.5613 97.2545 87.3244 96.8982 87.0055C96.5419 86.6866 96.2598 86.2935 96.0718 85.8539C95.8838 85.4142 95.7944 84.9387 95.8099 84.4608L84.9589 80.2908L89.8721 76.7764L99.4231 81.275C100.224 81.3545 100.969 81.7252 101.515 82.3169C102.061 82.9086 102.371 83.6801 102.387 84.4853C102.402 85.2904 102.121 86.0732 101.598 86.6852C101.075 87.2973 100.345 87.696 99.5473 87.8059L99.5477 87.8059Z" fill="#FFB7B7"/>
<path d="M93.347 84.8143L95.0413 78.8381L94.9579 78.7813L79.0878 68.0007L65.3692 54.2356L57.3778 57.4284L57.9025 59.9578L57.9368 59.9888L76.1765 76.3259L76.1934 76.3341L93.347 84.8143Z" fill="#3F3D56"/>
<path d="M77.0894 98.4652L52.5284 95.0224L54.69 79.9514H72.772L77.0894 98.4652Z" fill="#FFB6B6"/>
<path d="M35.3563 172.262L40.3946 173.433L47.3082 154.557L39.8723 152.829L35.3563 172.262Z" fill="#FFB6B6"/>
<path d="M30.6686 180.374L34.2817 181.213L35.7193 177.952L36.5783 181.747L46.1611 183.974C46.6205 184.081 47.1019 184.038 47.5351 183.852C47.9684 183.665 48.3308 183.345 48.5694 182.939C48.808 182.532 48.9103 182.06 48.8614 181.591C48.8126 181.121 48.615 180.68 48.2977 180.332L41.8733 173.268L42.6747 169.82L34.514 168.429L30.6686 180.374Z" fill="#2F2E41"/>
<path d="M66.4436 175.069H71.6162L74.0775 155.119H66.4436V175.069Z" fill="#FFB6B6"/>
<path d="M63.7136 184.031H67.423L68.0851 180.529L69.7808 184.031H79.6189C80.0905 184.032 80.5497 183.881 80.9296 183.601C81.3095 183.322 81.59 182.928 81.7304 182.478C81.8707 182.028 81.8635 181.545 81.7097 181.099C81.5559 180.653 81.2636 180.268 80.8756 180L73.0192 174.574V171.034L64.7556 171.527L63.7136 184.031Z" fill="#2F2E41"/>
<path d="M52.2178 92.4648L76.2373 90.5542C83.3252 107.111 78.8183 133.543 73.3713 163.297L65.6456 164.296L65.0464 116.484L45.6793 160.963L37.6273 160.552L52.2178 92.4648Z" fill="#2F2E41"/>
<path d="M66.1992 48.8656V40.7394C66.1992 37.8515 65.0519 35.0819 63.0099 33.0399C60.9678 30.9978 58.1982 29.8506 55.3103 29.8506C52.4224 29.8506 49.6528 30.9978 47.6107 33.0399C45.5687 35.0819 44.4214 37.8515 44.4214 40.7394C42.5023 44.7386 43.7029 46.64 44.4214 48.8656C44.4221 49.2531 44.5763 49.6246 44.8504 49.8987C45.1244 50.1727 45.4959 50.3269 45.8835 50.3276H64.7364C65.1241 50.3271 65.4958 50.173 65.77 49.8989C66.0442 49.6249 66.1985 49.2533 66.1992 48.8656Z" fill="#2F2E41"/>
<path d="M57.9975 50.2049C62.4066 50.2049 65.9809 46.6306 65.9809 42.2215C65.9809 37.8123 62.4066 34.238 57.9975 34.238C53.5883 34.238 50.014 37.8123 50.014 42.2215C50.014 46.6306 53.5883 50.2049 57.9975 50.2049Z" fill="#FFB7B7"/>
<path d="M68.7751 41.3891C68.7726 39.1055 67.8642 36.9161 66.2494 35.3013C64.6347 33.6865 62.4453 32.7782 60.1616 32.7756H58.5364C56.2527 32.7782 54.0633 33.6865 52.4485 35.3013C50.8337 36.9161 49.9254 39.1055 49.9229 41.3891V41.5517C51.1401 42.3838 52.2956 42.5055 53.3576 41.5517L54.529 38.2715L54.7632 41.5517H56.5385L57.1303 39.8968L57.2487 41.5517C59.6466 43.5938 64.1808 42.6152 68.7751 41.5517V41.3891Z" fill="#2F2E41"/>
<path d="M53.3423 84.3563L73.6687 83.5829L74.8049 70.2853C75.6811 67.8513 75.6954 65.7599 74.8471 64.0737C74.1174 62.6877 72.8915 61.6281 71.4144 61.1068L66.9667 55.7349C66.3945 55.0445 65.6761 54.4897 64.8634 54.1108C64.0507 53.7319 63.164 53.5383 62.2673 53.5439L50.7102 53.6229C50.4318 53.4555 48.7421 52.5967 45.4097 54.0407C41.7953 55.6071 42.6346 61.0494 42.6436 61.104L42.652 61.1552L42.6917 61.19L50.3785 67.6648L53.3423 84.3563Z" fill="#3F3D56"/>
<path d="M145.971 60.9762C132.855 75.7579 93.3907 78.5774 67.7029 105.711C59.0908 79.4839 71.291 34.211 83.4495 16.9461C89.2883 8.65517 98.1815 3.02327 108.173 1.28934C118.164 -0.4446 128.435 1.86146 136.725 7.70021C153.99 19.8588 159.987 45.1813 145.971 60.9762Z" fill="#033D20"/>
<path d="M114.19 46.7958C121.077 46.7958 126.66 41.2129 126.66 34.3261C126.66 27.4393 121.077 21.8564 114.19 21.8564C107.304 21.8564 101.721 27.4393 101.721 34.3261C101.721 41.2129 107.304 46.7958 114.19 46.7958Z" fill="#FFFDF8"/>
<path d="M57.1617 119.291C61.6724 119.291 65.329 115.635 65.329 111.124C65.329 106.613 61.6724 102.957 57.1617 102.957C52.651 102.957 48.9943 106.613 48.9943 111.124C48.9943 115.635 52.651 119.291 57.1617 119.291Z" fill="#033D20"/>
<path d="M47.8182 110.533C47.4626 110.213 47.1812 109.82 46.994 109.38C46.8069 108.94 46.7184 108.464 46.7348 107.986C46.7512 107.508 46.8722 107.04 47.0891 106.614C47.3061 106.188 47.6138 105.814 47.9905 105.52L44.2369 94.5183L50.0851 96.0374L52.7502 106.252C53.203 106.918 53.3957 107.727 53.2917 108.525C53.1878 109.324 52.7944 110.057 52.1861 110.585C51.5779 111.112 50.7971 111.399 49.9917 111.389C49.1864 111.38 48.4125 111.075 47.8169 110.533L47.8182 110.533Z" fill="#FFB7B7"/>
<path d="M46.1414 103.856L51.8155 101.328L49.9093 82.1358L51.6846 62.7833L44.1089 58.6948L42.5037 60.7187V60.7646L41.6533 85.2363L41.6579 85.2548L46.1414 103.856Z" fill="#3F3D56"/>
<path d="M181.432 140.259C181.036 141.746 179.994 142.985 178.736 143.888C178.53 144.035 178.32 144.172 178.107 144.301C178.041 144.339 177.975 144.38 177.907 144.416C177.833 144.459 177.759 144.5 177.685 144.539H171.77C171.663 144.323 171.559 144.104 171.456 143.888C168.92 138.56 167.14 132.812 167.444 126.957C167.564 124.686 168.041 122.448 168.857 120.325C170.482 116.094 173.446 112.432 177.524 110.589C177.625 110.542 177.732 110.496 177.836 110.452C177.803 110.57 177.77 110.685 177.737 110.802C177.3 112.378 176.991 113.987 176.813 115.613C176.797 115.739 176.783 115.864 176.772 115.993C176.383 119.914 176.728 123.873 177.789 127.668C177.792 127.676 177.795 127.687 177.798 127.695C178.03 128.535 178.3 129.361 178.607 130.176C178.848 130.818 179.108 131.453 179.392 132.076C180.579 134.693 182.171 137.483 181.432 140.259Z" fill="#E6E6E6"/>
<path d="M177.91 110.575C177.852 110.652 177.795 110.726 177.737 110.802C176.536 112.394 175.516 114.115 174.696 115.933C174.653 116.023 174.611 116.113 174.576 116.206C173.452 118.745 172.731 121.442 172.437 124.203C172.434 124.222 172.432 124.241 172.432 124.26C172.363 124.906 172.322 125.556 172.306 126.207C172.245 127.427 172.377 128.649 172.697 129.828C172.989 130.791 173.5 131.673 174.19 132.404C174.259 132.478 174.327 132.552 174.401 132.623C174.456 132.681 174.516 132.738 174.573 132.793C175.126 133.321 175.73 133.81 176.25 134.376C176.488 134.63 176.703 134.905 176.892 135.197C177.195 135.686 177.39 136.234 177.465 136.804C177.541 137.375 177.495 137.955 177.33 138.506C176.958 139.89 176.107 141.057 175.238 142.17C174.803 142.728 174.354 143.292 173.966 143.888C173.824 144.101 173.693 144.317 173.572 144.539H173.228C173.343 144.317 173.468 144.101 173.605 143.888C174.603 142.315 176.023 140.964 176.758 139.233C177.256 138.065 177.406 136.742 176.777 135.596C176.593 135.263 176.37 134.952 176.113 134.672C175.612 134.105 175.014 133.621 174.469 133.11C174.333 132.981 174.199 132.85 174.07 132.713C173.389 132.021 172.863 131.191 172.528 130.279C172.148 129.121 171.969 127.907 171.997 126.689C171.997 125.912 172.038 125.13 172.115 124.353C172.123 124.255 172.134 124.154 172.145 124.052C172.704 119.165 174.561 114.516 177.524 110.589C177.579 110.512 177.636 110.438 177.694 110.365C177.811 110.212 178.027 110.425 177.91 110.575Z" fill="#FFFDF8"/>
<path d="M172.255 124.379C171.308 124.22 170.448 123.729 169.829 122.995C169.21 122.26 168.873 121.33 168.876 120.369C168.877 120.33 168.893 120.293 168.92 120.265C168.948 120.237 168.985 120.221 169.024 120.22C169.063 120.219 169.101 120.234 169.13 120.26C169.159 120.287 169.176 120.323 169.179 120.363C169.173 121.257 169.488 122.124 170.066 122.807C170.643 123.49 171.446 123.943 172.329 124.086C172.521 124.118 172.446 124.41 172.255 124.379V124.379Z" fill="#FFFDF8"/>
<path d="M174.114 132.459C175.724 131.335 176.85 129.644 177.268 127.726C177.31 127.536 177.603 127.61 177.561 127.8C177.122 129.795 175.947 131.552 174.269 132.719C174.109 132.83 173.955 132.57 174.114 132.459H174.114Z" fill="#FFFDF8"/>
<path d="M174.606 115.901C174.96 116.039 175.342 116.087 175.719 116.04C176.095 115.994 176.455 115.855 176.765 115.635C176.923 115.522 177.077 115.782 176.919 115.894C176.576 116.135 176.179 116.289 175.763 116.341C175.347 116.393 174.924 116.343 174.532 116.194C174.494 116.183 174.461 116.158 174.441 116.124C174.421 116.09 174.414 116.049 174.422 116.01C174.432 115.972 174.457 115.938 174.492 115.918C174.526 115.897 174.567 115.891 174.606 115.901Z" fill="#FFFDF8"/>
<path d="M198.426 121.151C198.33 121.225 198.232 121.298 198.136 121.375C196.838 122.369 195.622 123.466 194.502 124.657C194.414 124.747 194.327 124.84 194.242 124.933L194.239 124.936C191.582 127.82 189.481 131.171 188.042 134.819L188.034 134.844C188.031 134.852 188.028 134.858 188.026 134.866C187.455 136.326 186.996 137.827 186.65 139.356C186.316 140.85 186.043 142.449 185.521 143.888C185.441 144.109 185.354 144.328 185.261 144.539H173.102C173.143 144.323 173.187 144.104 173.23 143.888C173.849 140.719 174.816 137.628 176.113 134.672C176.157 134.573 176.2 134.475 176.25 134.376C176.919 132.915 177.707 131.511 178.604 130.178C178.604 130.178 178.604 130.178 178.605 130.177C178.605 130.177 178.605 130.177 178.605 130.176C178.605 130.176 178.606 130.176 178.606 130.176C178.606 130.176 178.607 130.176 178.607 130.176C179.1 129.448 179.629 128.746 180.193 128.073C181.656 126.332 183.384 124.834 185.313 123.631C185.324 123.623 185.337 123.618 185.348 123.609C189.188 121.227 193.739 120.092 198.09 121.074H198.093C198.205 121.099 198.314 121.123 198.426 121.151Z" fill="#E6E6E6"/>
<path d="M198.412 121.296C198.319 121.32 198.226 121.348 198.136 121.375C196.22 121.923 194.37 122.681 192.62 123.637C192.533 123.683 192.445 123.732 192.358 123.782C189.94 125.131 187.745 126.846 185.851 128.865C185.85 128.867 185.849 128.869 185.849 128.871C185.827 128.893 185.802 128.917 185.783 128.939C185.346 129.41 184.924 129.899 184.525 130.402C183.744 131.341 183.115 132.395 182.66 133.528C182.312 134.473 182.19 135.485 182.302 136.485C182.31 136.586 182.324 136.684 182.337 136.785C182.348 136.865 182.359 136.944 182.373 137.026C182.553 138.123 182.865 139.222 182.778 140.341C182.724 140.914 182.55 141.469 182.267 141.97C181.984 142.471 181.598 142.907 181.134 143.248C180.819 143.491 180.482 143.706 180.128 143.888C179.621 144.149 179.093 144.367 178.55 144.539H177.475C177.62 144.498 177.762 144.457 177.907 144.416C178.421 144.27 178.926 144.094 179.419 143.888C179.701 143.77 179.975 143.635 180.24 143.483C181.339 142.851 182.255 141.883 182.447 140.59C182.613 139.457 182.291 138.325 182.099 137.218C182.067 137.026 182.036 136.837 182.02 136.649C181.889 135.69 181.969 134.714 182.252 133.788C182.646 132.634 183.234 131.555 183.992 130.599C184.46 129.977 184.961 129.379 185.49 128.808C185.556 128.734 185.624 128.66 185.696 128.587C187.629 126.552 189.862 124.825 192.317 123.464H192.319C194.144 122.448 196.081 121.646 198.09 121.074H198.092C198.183 121.047 198.276 121.019 198.366 120.995C198.555 120.946 198.598 121.244 198.412 121.296Z" fill="#FFFDF8"/>
<path d="M185.587 128.912C184.927 128.215 184.536 127.305 184.484 126.346C184.432 125.387 184.723 124.441 185.304 123.676C185.422 123.522 185.668 123.698 185.549 123.853C185.007 124.564 184.736 125.445 184.786 126.338C184.836 127.231 185.204 128.077 185.823 128.723C185.957 128.863 185.721 129.052 185.587 128.912Z" fill="#FFFDF8"/>
<path d="M182.207 136.483C184.169 136.554 186.086 135.883 187.575 134.603C187.723 134.476 187.912 134.711 187.765 134.838C186.213 136.167 184.216 136.862 182.175 136.784C181.98 136.776 182.014 136.476 182.207 136.483Z" fill="#FFFDF8"/>
<path d="M192.569 123.558C192.768 123.881 193.045 124.149 193.373 124.339C193.702 124.529 194.073 124.634 194.452 124.645C194.647 124.65 194.613 124.951 194.42 124.946C194.001 124.931 193.591 124.815 193.228 124.606C192.864 124.397 192.557 124.102 192.334 123.747C192.31 123.715 192.299 123.676 192.303 123.636C192.307 123.597 192.326 123.561 192.357 123.535C192.388 123.51 192.428 123.498 192.467 123.503C192.507 123.507 192.544 123.527 192.569 123.558Z" fill="#FFFDF8"/>
<path d="M107.746 179.57C107.349 181.058 106.307 182.296 105.049 183.199C104.844 183.347 104.633 183.483 104.42 183.612C104.354 183.65 104.289 183.691 104.22 183.727C104.147 183.77 104.073 183.811 103.999 183.85H98.0835C97.9769 183.634 97.873 183.415 97.769 183.199C95.2339 177.871 93.4535 172.123 93.7571 166.268C93.8775 163.997 94.3547 161.759 95.171 159.636C96.7954 155.405 99.76 151.743 103.838 149.9C103.939 149.853 104.045 149.807 104.149 149.763C104.117 149.881 104.084 149.996 104.051 150.113C103.613 151.689 103.304 153.298 103.126 154.924C103.11 155.05 103.096 155.175 103.085 155.304C102.697 159.225 103.042 163.184 104.103 166.979C104.106 166.987 104.108 166.998 104.111 167.006C104.344 167.846 104.613 168.673 104.921 169.487C105.161 170.129 105.421 170.764 105.705 171.387C106.892 174.004 108.484 176.794 107.746 179.57Z" fill="#E6E6E6"/>
<path d="M104.223 149.886C104.166 149.963 104.108 150.037 104.051 150.113C102.85 151.705 101.83 153.426 101.01 155.244C100.966 155.334 100.925 155.424 100.889 155.517C99.7659 158.056 99.0444 160.753 98.7508 163.514C98.7476 163.533 98.7458 163.552 98.7453 163.571C98.677 164.217 98.6359 164.868 98.6195 165.518C98.5587 166.738 98.6907 167.96 99.0106 169.139C99.3023 170.102 99.8134 170.984 100.504 171.715C100.572 171.789 100.641 171.863 100.714 171.934C100.769 171.992 100.829 172.049 100.887 172.104C101.439 172.632 102.043 173.121 102.563 173.687C102.801 173.941 103.016 174.216 103.206 174.508C103.508 174.997 103.703 175.545 103.779 176.115C103.854 176.686 103.808 177.266 103.643 177.817C103.271 179.201 102.421 180.368 101.551 181.481C101.116 182.039 100.668 182.603 100.28 183.199C100.137 183.412 100.006 183.628 99.8858 183.85H99.5412C99.656 183.628 99.7818 183.412 99.9186 183.199C100.917 181.626 102.336 180.275 103.072 178.544C103.57 177.376 103.72 176.053 103.091 174.907C102.907 174.574 102.684 174.263 102.426 173.983C101.926 173.416 101.327 172.932 100.783 172.421C100.646 172.292 100.512 172.161 100.383 172.024C99.702 171.332 99.1762 170.502 98.8411 169.591C98.4616 168.432 98.2821 167.218 98.3105 166C98.3105 165.223 98.3515 164.441 98.4281 163.664C98.4363 163.566 98.4473 163.465 98.4582 163.363C99.0175 158.476 100.875 153.827 103.838 149.9C103.892 149.823 103.95 149.75 104.007 149.676C104.125 149.523 104.341 149.736 104.223 149.886Z" fill="#FFFDF8"/>
<path d="M98.5686 163.69C97.6213 163.531 96.7615 163.04 96.1426 162.306C95.5237 161.571 95.186 160.64 95.1899 159.68C95.1904 159.641 95.2062 159.603 95.2337 159.575C95.2613 159.548 95.2986 159.532 95.3378 159.531C95.3769 159.53 95.4149 159.544 95.4437 159.571C95.4724 159.597 95.4898 159.634 95.492 159.673C95.4867 160.568 95.8013 161.435 96.379 162.117C96.9567 162.8 97.7595 163.254 98.6424 163.397C98.8343 163.428 98.7593 163.721 98.5686 163.69V163.69Z" fill="#FFFDF8"/>
<path d="M100.428 171.77C102.037 170.645 103.164 168.955 103.582 167.037C103.623 166.847 103.916 166.921 103.875 167.111C103.436 169.106 102.26 170.863 100.583 172.03C100.423 172.141 100.269 171.881 100.428 171.77V171.77Z" fill="#FFFDF8"/>
<path d="M100.919 155.212C101.273 155.35 101.655 155.398 102.032 155.351C102.409 155.305 102.768 155.166 103.078 154.946C103.236 154.833 103.39 155.093 103.233 155.205C102.89 155.446 102.493 155.6 102.076 155.652C101.66 155.704 101.238 155.654 100.845 155.505C100.807 155.494 100.775 155.469 100.754 155.435C100.734 155.401 100.727 155.36 100.736 155.321C100.746 155.283 100.771 155.249 100.805 155.229C100.839 155.208 100.88 155.202 100.919 155.212Z" fill="#FFFDF8"/>
<path d="M124.74 160.462C124.644 160.536 124.545 160.61 124.45 160.686C123.151 161.68 121.936 162.777 120.815 163.968C120.728 164.058 120.64 164.151 120.555 164.244L120.553 164.247C117.896 167.131 115.795 170.482 114.356 174.131L114.347 174.155C114.345 174.163 114.342 174.169 114.339 174.177C113.769 175.637 113.309 177.138 112.964 178.668C112.63 180.161 112.356 181.761 111.834 183.199C111.755 183.421 111.667 183.639 111.574 183.85H99.4154C99.4564 183.634 99.5002 183.415 99.5439 183.199C100.162 180.03 101.129 176.939 102.426 173.983C102.47 173.884 102.514 173.786 102.563 173.688C103.233 172.227 104.02 170.823 104.918 169.49C104.918 169.489 104.918 169.489 104.918 169.489C104.918 169.488 104.918 169.488 104.919 169.488C104.919 169.487 104.919 169.487 104.919 169.487C104.92 169.487 104.92 169.487 104.921 169.487C105.413 168.759 105.943 168.058 106.507 167.384C107.969 165.644 109.697 164.145 111.626 162.943C111.637 162.934 111.651 162.929 111.662 162.921C115.501 160.539 120.052 159.404 124.403 160.385H124.406C124.518 160.41 124.628 160.435 124.74 160.462Z" fill="#E6E6E6"/>
<path d="M124.726 160.607C124.633 160.631 124.54 160.659 124.45 160.686C122.533 161.234 120.683 161.992 118.934 162.948C118.846 162.994 118.759 163.043 118.671 163.093C116.253 164.442 114.059 166.157 112.165 168.177C112.164 168.178 112.163 168.18 112.162 168.182C112.14 168.204 112.116 168.228 112.097 168.25C111.659 168.721 111.238 169.21 110.839 169.713C110.058 170.652 109.428 171.706 108.974 172.839C108.626 173.784 108.503 174.796 108.615 175.796C108.623 175.897 108.637 175.995 108.651 176.096C108.662 176.176 108.673 176.255 108.686 176.337C108.867 177.434 109.179 178.533 109.091 179.652C109.038 180.225 108.864 180.78 108.581 181.281C108.297 181.782 107.911 182.218 107.447 182.559C107.132 182.803 106.795 183.017 106.441 183.199C105.934 183.46 105.407 183.678 104.863 183.85H103.788C103.933 183.809 104.075 183.768 104.22 183.727C104.735 183.581 105.24 183.405 105.733 183.199C106.014 183.081 106.288 182.946 106.553 182.794C107.653 182.162 108.569 181.194 108.76 179.901C108.927 178.768 108.604 177.636 108.413 176.529C108.38 176.337 108.35 176.148 108.334 175.96C108.203 175.001 108.282 174.025 108.566 173.099C108.96 171.945 109.548 170.866 110.305 169.91C110.774 169.288 111.274 168.69 111.804 168.119C111.87 168.045 111.938 167.971 112.009 167.898C113.943 165.863 116.175 164.136 118.63 162.775H118.633C120.458 161.759 122.394 160.957 124.403 160.385H124.406C124.496 160.358 124.589 160.33 124.679 160.306C124.868 160.257 124.912 160.555 124.726 160.607Z" fill="#FFFDF8"/>
<path d="M111.901 168.223C111.24 167.526 110.849 166.616 110.797 165.657C110.745 164.698 111.036 163.752 111.618 162.987C111.736 162.833 111.981 163.009 111.863 163.164C111.32 163.875 111.049 164.756 111.099 165.649C111.15 166.542 111.517 167.388 112.136 168.034C112.271 168.174 112.034 168.363 111.901 168.223Z" fill="#FFFDF8"/>
<path d="M108.521 175.794C110.483 175.865 112.4 175.193 113.889 173.914C114.036 173.787 114.225 174.022 114.078 174.149C112.526 175.478 110.53 176.172 108.488 176.094C108.293 176.087 108.327 175.786 108.521 175.794Z" fill="#FFFDF8"/>
<path d="M118.882 162.869C119.082 163.192 119.358 163.46 119.687 163.65C120.016 163.84 120.386 163.945 120.766 163.956C120.961 163.961 120.927 164.262 120.733 164.257C120.314 164.242 119.905 164.126 119.541 163.917C119.178 163.708 118.871 163.413 118.647 163.058C118.623 163.026 118.612 162.987 118.617 162.947C118.621 162.908 118.64 162.872 118.67 162.846C118.701 162.821 118.741 162.809 118.781 162.814C118.821 162.818 118.857 162.838 118.882 162.869Z" fill="#FFFDF8"/>
<path d="M120.896 105.106C122.709 105.106 124.178 103.636 124.178 101.824C124.178 100.011 122.709 98.542 120.896 98.542C119.084 98.542 117.615 100.011 117.615 101.824C117.615 103.636 119.084 105.106 120.896 105.106Z" fill="#F2F2F2"/>
<path d="M161.664 65.7952C163.477 65.7952 164.946 64.3259 164.946 62.5134C164.946 60.701 163.477 59.2317 161.664 59.2317C159.852 59.2317 158.383 60.701 158.383 62.5134C158.383 64.3259 159.852 65.7952 161.664 65.7952Z" fill="#F2F2F2"/>
<path d="M0.341032 184.372H204.434C204.524 184.372 204.611 184.337 204.675 184.273C204.739 184.209 204.775 184.122 204.775 184.031C204.775 183.941 204.739 183.854 204.675 183.79C204.611 183.726 204.524 183.69 204.434 183.69H0.341032C0.250585 183.69 0.163844 183.726 0.0998885 183.79C0.035933 183.854 0 183.941 0 184.031C0 184.122 0.035933 184.209 0.0998885 184.273C0.163844 184.337 0.250585 184.372 0.341032 184.372Z" fill="#CCCCCC"/>
<path opacity="0.2" d="M124.979 28.356C126.474 30.9117 127.011 33.916 126.493 36.8313C125.975 39.7465 124.437 42.3823 122.153 44.267C119.87 46.1516 116.99 47.162 114.029 47.1174C111.069 47.0728 108.221 45.976 105.995 44.0234C106.906 45.584 108.146 46.9279 109.628 47.962C111.11 48.9961 112.799 49.6957 114.578 50.0125C116.357 50.3292 118.184 50.2554 119.932 49.7962C121.679 49.3371 123.306 48.5035 124.7 47.3532C126.094 46.203 127.221 44.7635 128.003 43.1345C128.786 41.5056 129.205 39.726 129.231 37.9191C129.258 36.1121 128.891 34.321 128.157 32.6698C127.423 31.0186 126.338 29.5466 124.979 28.356Z" fill="#231F20"/>
<path opacity="0.2" d="M140.289 11.3464C150.525 24.5818 152.291 43.6033 140.948 56.3859C128.275 70.6677 91.0081 73.785 65.3331 98.4518C65.7605 101.024 66.3777 103.562 67.1794 106.043C92.8673 78.9098 132.331 76.0903 145.448 61.3085C158.292 46.8341 154.328 24.3602 140.289 11.3464Z" fill="#231F20"/>
</svg>
