<svg width="35" height="35" viewBox="0 0 35 35" fill="none" xmlns="http://www.w3.org/2000/svg">
<path fill-rule="evenodd" clip-rule="evenodd" d="M21.6683 0.550764C21.291 0.496685 20.9121 0.608223 20.6106 0.848198C20.3007 1.09155 20.1071 1.44307 20.065 1.83683C19.9757 2.6328 20.55 3.35273 21.3449 3.4423C26.827 4.05406 31.088 8.32461 31.7044 13.8238C31.787 14.5606 32.4051 15.1166 33.1427 15.1166C33.1983 15.1166 33.2522 15.1132 33.3078 15.1064C33.6935 15.0642 34.037 14.8732 34.2796 14.569C34.5204 14.2648 34.6299 13.8863 34.5861 13.4993C33.8181 6.63802 28.5078 1.31294 21.6683 0.550764ZM21.7736 6.43929C20.9685 6.29058 20.2292 6.80433 20.0759 7.59016C19.9226 8.376 20.438 9.14324 21.2211 9.29703C23.579 9.7567 25.3996 11.5819 25.8611 13.9478V13.9495C25.9925 14.6306 26.592 15.1257 27.2826 15.1257C27.3752 15.1257 27.4678 15.1173 27.5621 15.1004C28.3453 14.9432 28.8607 14.1777 28.7074 13.3901C28.0186 9.85641 25.2986 7.12711 21.7736 6.43929ZM24.4489 22.6752C25.2124 22.2349 26.0747 21.7377 27.1625 21.9691C28.1478 22.177 31.506 24.9029 32.4256 25.8476C33.0286 26.4661 33.3637 27.1049 33.4159 27.7437C33.5069 30.2499 30.1014 33.111 29.4816 33.4676C28.6581 34.0608 27.6998 34.3599 26.6236 34.3599C25.5238 34.3599 24.2977 34.0473 22.9604 33.4237C15.7049 30.3953 4.62122 19.5305 1.69072 12.3312C0.474729 9.65092 0.466308 7.44045 1.67051 5.77921C2.1505 5.00014 4.88732 1.74357 7.33783 1.84666C7.98961 1.90243 8.62287 2.23704 9.24434 2.84543C10.1841 3.76646 12.8418 7.13456 13.0473 8.12319C13.2746 9.22167 12.7761 10.0954 12.3332 10.8626C12.2387 11.0276 12.1114 11.2233 11.9719 11.4377C11.4427 12.2515 10.7382 13.3347 10.9875 14.0262C12.7744 18.4134 16.9024 22.2412 21.2914 24.0393C21.9701 24.286 23.0527 23.5765 23.8639 23.0449C24.0753 22.9064 24.2682 22.7799 24.4307 22.6856L24.4489 22.6752Z" fill="#FFDDB6"/>
</svg>
