<svg width="38" height="37" viewBox="0 0 38 37" fill="none" xmlns="http://www.w3.org/2000/svg">
<path d="M19.346 3.32586C24.2752 3.32586 24.859 3.34748 26.7975 3.43396C28.5992 3.51323 29.572 3.8159 30.2206 4.06813C31.0782 4.39963 31.6979 4.8032 32.3393 5.44457C32.9879 6.09316 33.3843 6.70571 33.7158 7.56329C33.968 8.21187 34.2707 9.19196 34.3499 10.9864C34.4364 12.9321 34.458 13.5159 34.458 18.4379C34.458 23.3672 34.4364 23.9509 34.3499 25.8894C34.2707 27.6911 33.968 28.6639 33.7158 29.3125C33.3843 30.1701 32.9807 30.7899 32.3393 31.4312C31.6907 32.0798 31.0782 32.4762 30.2206 32.8077C29.572 33.0599 28.5919 33.3626 26.7975 33.4419C24.8518 33.5283 24.268 33.5499 19.346 33.5499C14.4167 33.5499 13.833 33.5283 11.8945 33.4419C10.0928 33.3626 9.11996 33.0599 8.47138 32.8077C7.6138 32.4762 6.99404 32.0726 6.35266 31.4312C5.70408 30.7827 5.30772 30.1701 4.97622 29.3125C4.72399 28.6639 4.42132 27.6839 4.34205 25.8894C4.25557 23.9437 4.23395 23.36 4.23395 18.4379C4.23395 13.5087 4.25557 12.9249 4.34205 10.9864C4.42132 9.18475 4.72399 8.21187 4.97622 7.56329C5.30772 6.70571 5.71129 6.08595 6.35266 5.44457C7.00125 4.79599 7.6138 4.39963 8.47138 4.06813C9.11996 3.8159 10.1 3.51323 11.8945 3.43396C13.833 3.34748 14.4167 3.32586 19.346 3.32586ZM19.346 0.00366211C14.3375 0.00366211 13.7105 0.0252816 11.7431 0.11176C9.78296 0.198238 8.43535 0.515324 7.26789 0.969334C6.04999 1.44496 5.01946 2.07193 3.99614 3.10246C2.96561 4.12578 2.33864 5.15631 1.86301 6.36701C1.409 7.54167 1.09191 8.88208 1.00544 10.8422C0.918958 12.8168 0.897339 13.4438 0.897339 18.4523C0.897339 23.4608 0.918958 24.0878 1.00544 26.0552C1.09191 28.0154 1.409 29.363 1.86301 30.5304C2.33864 31.7483 2.96561 32.7789 3.99614 33.8022C5.01946 34.8255 6.04999 35.4597 7.26068 35.9281C8.43535 36.3821 9.77575 36.6992 11.7359 36.7857C13.7033 36.8722 14.3303 36.8938 19.3388 36.8938C24.3473 36.8938 24.9743 36.8722 26.9417 36.7857C28.9018 36.6992 30.2494 36.3821 31.4169 35.9281C32.6276 35.4597 33.6581 34.8255 34.6814 33.8022C35.7048 32.7789 36.3389 31.7483 36.8074 30.5376C37.2614 29.363 37.5785 28.0226 37.6649 26.0624C37.7514 24.095 37.773 23.468 37.773 18.4595C37.773 13.451 37.7514 12.824 37.6649 10.8567C37.5785 8.89649 37.2614 7.54887 36.8074 6.38142C36.3534 5.15631 35.7264 4.12578 34.6959 3.10246C33.6725 2.07914 32.642 1.44496 31.4313 0.976541C30.2566 0.522531 28.9162 0.205444 26.9561 0.118966C24.9815 0.0252816 24.3545 0.00366211 19.346 0.00366211Z" fill="#FFDDB6"/>
<path d="M19.346 8.97583C14.1141 8.97583 9.86945 13.2205 9.86945 18.4524C9.86945 23.6843 14.1141 27.9289 19.346 27.9289C24.5779 27.9289 28.8226 23.6843 28.8226 18.4524C28.8226 13.2205 24.5779 8.97583 19.346 8.97583ZM19.346 24.5995C15.9517 24.5995 13.1989 21.8467 13.1989 18.4524C13.1989 15.0581 15.9517 12.3052 19.346 12.3052C22.7403 12.3052 25.4931 15.0581 25.4931 18.4524C25.4931 21.8467 22.7403 24.5995 19.346 24.5995Z" fill="#FFDDB6"/>
<path d="M31.4097 8.60083C31.4097 9.82594 30.4152 10.8132 29.1973 10.8132C27.9722 10.8132 26.9849 9.81873 26.9849 8.60083C26.9849 7.37572 27.9794 6.38843 29.1973 6.38843C30.4152 6.38843 31.4097 7.38293 31.4097 8.60083Z" fill="#FFDDB6"/>
</svg>
