<svg width="374" height="284" viewBox="0 0 374 284" fill="none" xmlns="http://www.w3.org/2000/svg">
<path d="M226.569 85.8319C227.035 85.8534 227.497 85.7308 227.891 85.4807C228.285 85.2305 228.593 84.865 228.773 84.4336C228.954 84.0023 228.997 83.5259 228.898 83.069C228.798 82.6121 228.561 82.1968 228.218 81.8794C228.161 81.6508 228.12 81.4867 228.063 81.2582C228.083 81.2084 228.104 81.1587 228.124 81.1091C230.22 76.1029 237.324 76.1374 239.402 81.151C241.246 85.6009 243.594 90.0583 244.173 94.7632C244.427 96.8429 244.32 98.9511 243.855 100.994C248.187 91.528 250.437 81.2396 250.451 70.8264C250.452 68.2133 250.307 65.6023 250.017 63.0054C249.777 60.8765 249.445 58.7628 249.019 56.6642C246.697 45.2775 241.712 34.605 234.473 25.5231C230.969 23.6081 228.136 20.6633 226.354 17.0855C225.709 15.7994 225.253 14.4265 225 13.0095C225.395 13.0614 226.49 7.03172 226.192 6.66177C226.743 5.82452 227.729 5.40834 228.33 4.59135C231.322 0.528175 235.444 1.23763 237.596 6.75917C242.193 9.08314 242.237 12.9373 239.417 16.6441C237.622 19.0024 237.376 22.1934 235.801 24.7182C235.963 24.9259 236.132 25.1271 236.294 25.3348C239.255 29.1489 241.836 33.2445 243.999 37.5629C243.387 32.7734 244.291 27.0033 245.831 23.2839C247.585 19.0459 250.872 15.4767 253.767 11.813C257.244 7.41236 264.374 9.3329 264.986 14.9114C264.992 14.9654 264.998 15.0194 265.004 15.0734C264.574 15.3164 264.153 15.5743 263.741 15.8471C263.224 16.1933 262.823 16.688 262.591 17.2664C262.359 17.8447 262.307 18.4797 262.442 19.0882C262.576 19.6967 262.891 20.2502 263.345 20.6763C263.799 21.1025 264.371 21.3813 264.986 21.4762L265.049 21.486C264.896 23.0382 264.625 24.5766 264.239 26.0877C267.953 40.4735 259.935 45.7131 248.488 45.9485C248.235 46.0783 247.989 46.2081 247.736 46.3314C249.91 52.502 251.273 58.9295 251.792 65.4523C252.086 69.3005 252.069 73.1663 251.74 77.0117L251.76 76.8755C252.589 72.5994 254.867 68.7411 258.207 65.952C263.168 61.8695 270.178 60.3662 275.53 57.0846C278.107 55.505 281.408 57.5463 280.959 60.5385C280.951 60.5863 280.944 60.634 280.937 60.6818C280.139 61.0073 279.362 61.3823 278.611 61.8046C278.181 62.0477 277.76 62.3055 277.348 62.5783C276.831 62.9246 276.43 63.4193 276.198 63.9976C275.966 64.5759 275.914 65.211 276.049 65.8194C276.183 66.4279 276.498 66.9815 276.952 67.4076C277.406 67.8337 277.978 68.1125 278.593 68.2075L278.656 68.2172C278.701 68.2237 278.74 68.2302 278.786 68.2367C277.422 71.4974 275.509 74.4987 273.129 77.1091C270.807 89.6674 260.834 90.8589 250.166 87.2018H250.16C248.989 92.2968 247.293 97.2562 245.099 102H227.022C226.957 101.799 226.898 101.591 226.84 101.39C228.513 101.495 230.193 101.395 231.842 101.091C230.501 99.4428 229.16 97.7812 227.819 96.1326C227.789 96.1018 227.76 96.0693 227.734 96.0353C227.054 95.1916 226.367 94.3543 225.687 93.5105L225.686 93.5095C225.65 90.9231 225.946 88.3429 226.568 85.8323L226.569 85.8319Z" fill="#F2F2F2"/>
<path d="M284.621 39.7371C281.275 27.529 308.26 17.0602 315.346 26.8915C316.332 25.4938 319.973 24.6448 321.644 25.0735C323.315 25.5023 324.72 26.5742 326.091 27.6118C327.976 29.061 329.93 30.5617 331.086 32.6454C332.252 34.7206 332.432 37.5505 330.864 39.3512C329.621 40.7833 325.954 41.7094 324.086 42.0867C322.784 42.3526 321.687 42.5669 320.745 42.7213C319.888 41.4869 319.494 39.9901 319.631 38.4937C318.996 38.922 318.464 39.4855 318.073 40.1438C317.682 40.802 317.442 41.5388 317.369 42.3011C317.343 42.6184 327.899 81.4897 327.899 81.4897C326.631 82.2122 325.297 82.8122 323.915 83.2819C321.181 79.1007 319.087 74.5339 317.703 69.7331C317.385 72.9433 317.425 76.179 317.823 79.3802C318.034 81.1753 318.338 82.9584 318.731 84.7225C306.187 87.4323 287.32 86.5405 279.111 75.0155C279.11 74.9678 279.109 74.9201 279.107 74.8723C279.101 74.4174 278.937 73.9789 278.643 73.6318C278.349 73.2848 277.943 73.0508 277.496 72.97C277.049 72.8891 276.587 72.9665 276.19 73.1888C275.794 73.4111 275.487 73.7645 275.322 74.1884C275.123 74.6969 274.939 75.137 274.776 75.4871C272.385 66.929 275.478 57.0247 284.621 39.7371Z" fill="#2F2E41"/>
<path d="M366 284H319.972C319.315 283.477 318.858 282.744 318.679 281.924C318.5 281.104 318.608 280.248 318.986 279.499C320.243 276.619 317.779 273.988 317.779 273.988C316.943 273.009 316.361 271.84 316.086 270.583C315.811 269.326 315.851 268.02 316.202 266.783C317.421 262.529 312.642 250.524 312.642 250.524C312.642 250.524 310.066 266.026 306.909 284H263.134C262.4 282.753 262.014 281.333 262.014 279.886C262.014 278.44 262.4 277.02 263.134 275.772C265.685 271.453 263.134 270.624 263.134 270.624C263.134 270.624 260.583 265.791 263.134 262.282C265.685 258.772 263.134 244.442 263.134 244.442C263.23 245.076 263.957 243.924 265.076 241.508C266.779 237.834 269.382 231.225 272.013 223.553C273.893 218.078 275.789 212.053 277.373 206.163H277.377C277.792 204.615 278.186 203.082 278.557 201.563C279.284 198.583 279.907 195.688 280.38 192.969C281.407 187.114 281.745 182.083 280.957 178.812C280.303 176.089 278.873 174.588 276.404 174.845C277.727 174.626 279.665 174.419 282.053 174.223C282.483 174.189 282.929 174.154 283.391 174.116C301.202 172.772 339.417 172 339.417 172L351.122 192.931L365.946 219.445C365.946 219.445 365.542 255.013 366 284Z" fill="#2F2E41"/>
<path d="M317.429 81.7353L290.38 76L285.009 86.8059L266.923 97.2724C266.923 97.2724 278.581 144.92 278.515 151.621C278.346 168.635 251.111 206.774 271.682 203.84C292.253 200.906 296.432 188.616 303.036 190.559C308.992 192.312 316.264 200.108 321.132 194.532C326.001 188.956 327.716 195.395 330.794 195.618C332.257 195.723 331.376 188.577 335.057 195.84C338.738 203.103 358.258 193.326 351.642 186.713C340.624 175.699 338.385 94.511 338.385 94.511L326.119 90.7385L317.429 81.7353Z" fill="#E6E6E6"/>
<path d="M265.992 254.698C267.075 253.381 267.611 251.686 267.486 249.972C267.362 248.258 266.587 246.662 265.326 245.522C265.066 245.295 264.788 245.089 264.495 244.909L269 222.358L258.586 216L255.69 247.573C255.049 248.87 254.847 250.347 255.116 251.774C255.385 253.201 256.109 254.497 257.176 255.46C257.788 256.001 258.499 256.415 259.268 256.676C260.037 256.938 260.849 257.043 261.657 256.984C262.466 256.926 263.255 256.706 263.98 256.336C264.705 255.966 265.352 255.455 265.883 254.83C265.92 254.787 265.956 254.743 265.992 254.698Z" fill="#A0616A"/>
<path d="M298.997 137.824C298.931 137.113 298.019 136.789 296.756 136.343C295.488 135.954 294.282 135.386 293.176 134.655C290.38 132.644 291.48 130.541 293.002 127.633C293.3 127.068 293.609 126.48 293.898 125.868C294.76 124.057 293.388 116.585 289.816 103.657C288.715 99.6765 288.719 96.8655 287.958 95.0004C287.201 93.1353 285.683 92.2162 281.546 92.024C276.546 91.7727 271.65 93.5054 267.931 96.8424C267.831 96.9308 267.727 97.027 267.626 97.1193C267.437 97.2962 267.252 97.4769 267.07 97.6615C263.631 101.106 261.663 105.742 261.578 110.598L261.558 111.425L260.705 150.926L258.306 185.589L255 233.339L257.449 233.458L267.221 233.942L268.406 234L271.218 222.256L274.602 208.124L275.845 202.932L279.704 186.827L281.504 179.302L282.605 174.706L283.053 172.83L285.239 163.708C285.289 163.516 290.318 143.761 296.115 140.458C298.278 139.228 299.058 138.512 298.997 137.824Z" fill="#E6E6E6"/>
<path d="M363.425 254.202C362.204 253.014 361.49 251.39 361.433 249.676C361.376 247.963 361.981 246.294 363.119 245.025C363.355 244.771 363.611 244.537 363.884 244.326L357 222.446L366.728 215L372.961 246.006C373.738 247.223 374.096 248.667 373.978 250.112C373.86 251.557 373.274 252.922 372.31 253.993C371.756 254.598 371.09 255.086 370.35 255.429C369.61 255.773 368.81 255.965 367.996 255.996C367.182 256.026 366.371 255.894 365.608 255.606C364.844 255.319 364.145 254.882 363.548 254.321C363.506 254.282 363.465 254.242 363.425 254.202Z" fill="#A0616A"/>
<path d="M368.625 207.454C368.625 207.454 361.038 180.851 363.352 177.971C365.666 175.091 358.832 174.529 361.777 169.165C364.722 163.801 360.657 162.904 360.657 162.904L358.451 150.572L354.508 120.281L354.388 119.381L353.241 110.568C352.921 108.051 352.094 105.624 350.811 103.433C349.528 101.241 347.815 99.3299 345.774 97.8133C345.67 97.7338 345.563 97.6574 345.457 97.581C344.971 97.2327 344.475 96.91 343.969 96.6129C340.183 94.3875 335.738 93.5461 331.398 94.2334C323.22 95.5027 325.765 98.542 324.438 106.684C322.283 119.923 321.724 127.497 322.775 129.209C323.129 129.785 323.501 130.336 323.856 130.865C325.682 133.597 327.002 135.568 324.439 137.871C323.418 138.713 322.282 139.406 321.065 139.929C319.86 140.51 318.988 140.927 319 141.641C319.014 142.333 319.865 142.958 322.145 143.95C324.908 145.154 327.875 149.709 330.305 154.363C332.233 158.114 333.953 161.967 335.457 165.906L356.346 224.452L359.753 234L360.928 233.815L370.58 232.29L373 231.908L368.625 207.454Z" fill="#E6E6E6"/>
<path d="M306 75C318.15 75 328 65.1503 328 53C328 40.8497 318.15 31 306 31C293.85 31 284 40.8497 284 53C284 65.1503 293.85 75 306 75Z" fill="#A0616A"/>
<path d="M272.621 40.7371C269.275 28.529 296.26 18.0602 303.346 27.8915C304.332 26.4938 307.973 25.6448 309.644 26.0735C311.315 26.5023 312.72 27.5742 314.091 28.6118C315.976 30.061 317.93 31.5617 319.086 33.6454C320.252 35.7206 320.432 38.5505 318.864 40.3512C317.621 41.7833 313.954 42.7094 312.086 43.0867C310.784 43.3526 309.687 43.5669 308.744 43.7213C307.888 42.4869 307.494 40.9901 307.631 39.4937C306.996 39.922 306.464 40.4855 306.073 41.1438C305.682 41.802 305.442 42.5388 305.369 43.3011C305.343 43.6184 315.899 82.4897 315.899 82.4897C314.631 83.2122 313.297 83.8122 311.915 84.2819C309.181 80.1007 307.087 75.5339 305.703 70.7331C305.385 73.9433 305.425 77.179 305.823 80.3802C306.034 82.1753 306.338 83.9584 306.731 85.7225C294.187 88.4323 275.32 87.5405 267.111 76.0155C267.11 75.9678 267.109 75.9201 267.107 75.8723C267.101 75.4174 266.937 74.9789 266.643 74.6318C266.349 74.2848 265.943 74.0508 265.496 73.97C265.049 73.8892 264.587 73.9665 264.19 74.1888C263.794 74.4111 263.487 74.7645 263.322 75.1884C263.123 75.6969 262.939 76.137 262.776 76.4871C260.385 67.929 263.478 58.0247 272.621 40.7371Z" fill="#2F2E41"/>
<path d="M163.431 116.994C162.965 117.015 162.504 116.893 162.109 116.646C161.715 116.398 161.407 116.036 161.227 115.609C161.046 115.182 161.003 114.711 161.102 114.258C161.202 113.806 161.439 113.395 161.782 113.081C161.839 112.854 161.88 112.692 161.938 112.466C161.917 112.416 161.896 112.367 161.876 112.318C159.78 107.362 152.676 107.396 150.598 112.359C148.754 116.765 146.406 121.178 145.827 125.836C145.573 127.894 145.68 129.982 146.145 132.004C141.813 122.633 139.563 112.447 139.549 102.138C139.548 99.5512 139.693 96.9663 139.983 94.3954C140.223 92.2878 140.555 90.1952 140.981 88.1176C143.303 76.8448 148.288 66.279 155.527 57.2878C159.031 55.392 161.864 52.4766 163.646 48.9346C164.291 47.6614 164.747 46.3022 165 44.8994C164.605 44.9508 163.51 38.9814 163.808 38.6152C163.257 37.7863 162.271 37.3743 161.67 36.5654C158.678 32.5429 154.556 33.2453 152.404 38.7116C147.807 41.0123 147.763 44.8279 150.583 48.4977C152.378 50.8324 152.624 53.9915 154.199 56.491C154.037 56.6966 153.868 56.8958 153.706 57.1015C150.745 60.8774 148.164 64.9321 146.001 69.2073C146.613 64.4657 145.709 58.7533 144.169 55.071C142.415 50.8755 139.128 47.3419 136.233 43.7149C132.756 39.3582 125.626 41.2596 125.014 46.7823C125.008 46.8358 125.002 46.8892 124.996 46.9427C125.426 47.1832 125.847 47.4385 126.259 47.7086C126.776 48.0514 127.177 48.5411 127.409 49.1137C127.641 49.6863 127.693 50.3149 127.558 50.9173C127.424 51.5197 127.109 52.0677 126.655 52.4896C126.201 52.9115 125.629 53.1875 125.014 53.2815L124.951 53.2911C125.104 54.8278 125.375 56.3508 125.761 57.8468C122.047 72.0888 130.065 77.276 141.512 77.509C141.765 77.6375 142.011 77.766 142.264 77.8881C140.09 83.997 138.727 90.3602 138.208 96.8178C137.914 100.628 137.931 104.455 138.26 108.262L138.24 108.127C137.411 103.893 135.133 100.074 131.793 97.3125C126.832 93.2709 119.822 91.7825 114.47 88.5338C111.893 86.9699 108.592 88.9909 109.041 91.9531C109.049 92.0004 109.056 92.0477 109.063 92.095C109.861 92.4173 110.638 92.7885 111.389 93.2066C111.819 93.4472 112.24 93.7025 112.652 93.9725C113.169 94.3153 113.57 94.8051 113.802 95.3776C114.034 95.9502 114.086 96.5788 113.951 97.1812C113.817 97.7836 113.502 98.3317 113.048 98.7535C112.594 99.1754 112.022 99.4514 111.407 99.5454L111.344 99.555C111.299 99.5615 111.26 99.5679 111.215 99.5744C112.578 102.802 114.491 105.774 116.871 108.358C119.193 120.791 129.166 121.97 139.834 118.35H139.841C141.011 123.394 142.707 128.304 144.901 133H162.978C163.043 132.801 163.102 132.595 163.16 132.396C161.487 132.5 159.807 132.401 158.158 132.1C159.499 130.468 160.84 128.823 162.181 127.191C162.211 127.161 162.239 127.129 162.266 127.095C162.946 126.26 163.633 125.431 164.313 124.595L164.314 124.594C164.35 122.034 164.054 119.479 163.432 116.994L163.431 116.994Z" fill="#F2F2F2"/>
<path d="M79.1051 26C78.7041 26.9656 66.3397 26.8621 65.7735 27.722C61.4073 34.3602 77.1463 62.6041 72.7802 69.2509L72.172 70C73.5964 69.3217 74.9647 68.524 76.2631 67.6151C76.3798 64.8944 76.4965 62.165 76.6214 59.4443C77.9292 61.173 78.9847 63.0904 79.7544 65.1354C80.7709 64.395 81.6048 63.0224 85.9619 60.3225C87.7259 58.3202 89.7594 56.5906 92 55.1866L79.1051 26Z" fill="#2F2E41"/>
<path d="M88.2587 80.6743C86.8677 79.7778 85.2808 79.2225 83.6294 79.0543C81.9781 78.8861 80.31 79.11 78.7637 79.7074C77.2173 80.3047 75.8372 81.2583 74.7379 82.4891C73.6386 83.7198 72.8519 85.1922 72.4429 86.784L53.2882 136.164L20.3636 117.67C20.219 115.544 19.3977 113.518 18.0175 111.883C16.6373 110.247 14.7691 109.087 12.6808 108.567C10.5925 108.047 8.39143 108.194 6.39327 108.989C4.3951 109.783 2.7025 111.183 1.55823 112.988C0.413954 114.793 -0.123209 116.91 0.0237824 119.035C0.170774 121.161 0.994371 123.186 2.37645 124.82C3.75852 126.454 5.62806 127.612 7.71695 128.13C9.80583 128.648 12.0067 128.497 14.004 127.701C20.9376 135.022 50.9975 165.041 63.4421 153.312C73.9023 143.453 88.9978 105.244 92.6315 92.0494C93.2136 89.9395 93.1038 87.7013 92.318 85.6571C91.5322 83.6129 90.1108 81.8682 88.2587 80.6743Z" fill="#FFB6B6"/>
<path d="M52 156L58.1217 183.043L102.886 187L107 163.453L52 156Z" fill="#FFB6B6"/>
<path d="M119.921 225.686C119.901 226.077 119.877 226.465 119.848 226.856C119.424 232.516 118.94 239.044 118.415 246.198C117.587 257.55 116.662 270.476 115.729 284H23L40.9838 229.966C40.9838 229.966 48.2453 225.97 44.5484 219.257C40.8515 212.543 48.1257 217.893 48.1933 208.305C48.261 198.717 54.7793 188.517 54.7793 188.517L55.8496 174L56.4594 174.012L104.716 174.815L105.596 174.832L107.079 187.294C116.078 197.998 120.669 211.723 119.921 225.686Z" fill="#2F2E41"/>
<path d="M79.8717 67.1353L101.85 66L112.058 82.1747C112.058 82.1747 131.265 85.3947 129.934 108.09C128.602 130.786 106.565 150.701 106.565 150.701L107.507 147.462L105.87 152.15L106.08 154.782L108.312 157.57L108.542 160.453L106.565 165.014C106.822 165.428 106.958 165.905 106.958 166.392C106.959 166.879 106.823 167.357 106.566 167.77C106.31 168.184 105.943 168.517 105.507 168.732C105.071 168.947 104.584 169.036 104.1 168.987L72.3434 165.796C71.6204 163.801 71.0402 161.415 68.1421 165.388L65.1506 165.097L52.7147 163.889L51.9828 161.215C51.5669 159.696 51.5021 158.101 51.7933 156.553C52.0845 155.005 52.724 153.544 53.6633 152.281C52.5831 148.889 52.866 145.209 54.4518 142.023L54.5113 141.903L55.8319 140.8C55.8319 140.8 41.3838 119.034 57.9698 102.64L64.6266 91.2923L72.075 82.1799L79.8717 67.1353Z" fill="#FF8126"/>
<path d="M85.5 57C96.8218 57 106 47.8218 106 36.5C106 25.1782 96.8218 16 85.5 16C74.1782 16 65 25.1782 65 36.5C65 47.8218 74.1782 57 85.5 57Z" fill="#FFB6B6"/>
<path d="M101.63 66.488C99.9082 65.0737 98.71 63.14 98.2212 60.9873C97.8302 63.601 97.9324 66.2632 98.5225 68.8406C97.3777 69.6869 96.2673 70.4908 95.2172 71.2186C94.4221 69.2086 93.3317 67.3239 91.9808 65.6248C91.8517 68.299 91.7312 70.9817 91.6106 73.6558C90.2693 74.5493 88.8558 75.3333 87.3844 76L88.0127 75.2638C92.523 68.7306 80.8513 56.7052 85.3616 50.1805C86.6269 48.3525 80.9115 33.9069 76.5561 33.2552C72.6827 32.6798 72.8463 33.7799 69.0934 34.5839C68.7037 32.9859 68.0987 31.4461 67.2944 30.0056C67.5085 31.6108 67.4591 33.2394 67.1481 34.8293C65.814 34.88 64.7643 34.0442 63.3436 33.8307C54.2799 32.4682 55.2009 22.8293 57.7229 19.7743C60.2535 16.7277 68.6544 15.8138 72.5278 14.8236C72.8807 14.4851 73.6812 14.6967 74.0341 14.3751C81.4572 7.69593 91.3852 6.58981 100.319 9.55017C109.847 12.7072 115.787 18.8173 118.836 28.2369L119.711 35.775C120.495 38.1987 119.508 49.4761 118.836 51.9323C116.224 61.4798 110.66 56.7137 101.63 66.488Z" fill="#2F2E41"/>
<path d="M132 165.661L131.179 101.235C131.136 98.506 130.03 95.903 128.098 93.9881C126.167 92.0732 123.566 91 120.856 91H120.856C119.455 91 118.067 91.2876 116.78 91.8453C115.492 92.4029 114.33 93.219 113.365 94.2436C112.401 95.2683 111.653 96.4801 111.169 97.8053C110.684 99.1304 110.473 100.541 110.547 101.951L113.437 168.847L113.492 209.57C111.789 210.297 110.349 211.535 109.369 213.116C108.389 214.696 107.915 216.542 108.013 218.403C108.11 220.264 108.774 222.05 109.914 223.517C111.054 224.985 112.615 226.063 114.384 226.606C116.154 227.149 118.047 227.13 119.805 226.552C121.564 225.973 123.103 224.864 124.213 223.373C125.324 221.883 125.952 220.085 126.013 218.222C126.074 216.36 125.564 214.523 124.552 212.963L132 165.661Z" fill="#FFB6B6"/>
<path d="M239.651 248.512C239.651 248.512 238.374 271.111 237.787 284H193.816C192.911 272.271 192.607 263.653 192.607 263.653L190.201 284H145.755L143 246.317L156.316 213.843C156.316 213.843 228.477 208.92 235.17 215.166C241.859 221.407 239.651 248.512 239.651 248.512Z" fill="#2F2E41"/>
<path d="M201 56C214.255 56 225 45.2548 225 32C225 18.7452 214.255 8 201 8C187.745 8 177 18.7452 177 32C177 45.2548 187.745 56 201 56Z" fill="#FFB6B6"/>
<path d="M229 24.6051C226.538 25.7221 224.943 33.8123 223.008 31.9315C221.073 30.0507 221.202 27.6031 218.593 26.909C216.486 26.3461 214.219 26.9894 212.298 28.0041C211.954 28.1831 211.622 28.3778 211.298 28.5714C211.084 28.4291 210.871 28.2952 210.642 28.1717C208.923 27.2564 206.917 27.0318 205.037 27.5443C206.522 28.0395 207.814 28.9869 208.729 30.2526C208.086 30.6814 207.435 31.1114 206.768 31.4924C201.202 34.689 193.28 27.7381 187.421 25.1269C191.091 31.9803 189.284 34.8186 186.097 41.9065L185.987 42.3101C186.168 40.5337 180.644 39.2098 180.964 41.7105C181.191 43.486 182.736 47.4324 183.6 49C177.44 41.9118 173.23 33.2378 174.118 24.2898C174.312 22.4101 174.253 20.4268 175.228 18.7954C176.203 17.1723 178.237 16.0333 180.035 16.6523C179.883 13.7987 180.511 10.9573 181.851 8.43022C183.192 5.90316 185.196 3.78486 187.65 2.30053C190.104 0.81621 192.917 0.0213389 195.788 0.000423673C198.66 -0.0204915 201.484 0.733335 203.959 2.18176C206.26 3.52488 208.18 5.42449 210.288 7.06306C212.397 8.70161 214.827 10.1299 217.501 10.2651C219.197 10.3465 221.042 9.93453 222.499 10.8086C224.187 11.8228 224.476 13.9463 224.729 15.9896C223.224 16.1372 221.797 16.7282 220.631 17.6869C222.188 17.5288 223.757 17.8635 225.112 18.6433C225.138 18.6549 225.162 18.6688 225.185 18.6848C226.078 22.0617 225.986 22.8103 229 24.6051Z" fill="#2F2E41"/>
<path d="M146 225C166.495 201.215 159.572 170.963 151.438 140.424L152.986 95.3099C153.062 93.0969 153.674 90.9345 154.77 89.0053C155.866 87.0761 157.415 85.4367 159.284 84.2257L180.207 70.6736L188.351 59L210.798 61.2256L223.246 74.2773L237.025 84.7064C240.484 87.3249 243.117 90.8696 244.612 94.9225C246.106 98.9753 246.401 103.367 245.462 107.581L232.276 166.702C232.276 166.702 237.791 197.35 234.426 200.735C231.061 204.12 222.39 200.737 229.266 204.537C237.518 209.097 245.021 208.255 240.845 212.395C236.669 216.536 241.954 222.291 241.954 222.291L146 225Z" fill="#8FA89B"/>
<path d="M154.583 260.123L158 235.877L144.365 232L141.668 257.763C140.539 258.793 139.722 260.117 139.307 261.584C138.893 263.052 138.898 264.606 139.321 266.071C139.745 267.536 140.57 268.855 141.705 269.879C142.84 270.902 144.239 271.59 145.744 271.865C147.25 272.141 148.803 271.992 150.229 271.436C151.655 270.881 152.896 269.94 153.815 268.72C154.733 267.5 155.291 266.049 155.427 264.53C155.563 263.012 155.27 261.485 154.583 260.123Z" fill="#FFB6B6"/>
<path d="M181 75C181 75 142.583 87.5059 141.667 96.6563C140.751 105.807 141.055 111.408 137 148.024L137.214 246.658C137.214 246.658 162.97 252.173 160.329 246.276C157.687 240.379 158.609 237.605 158.609 237.605C158.609 237.605 164.131 235.425 162.749 228.501C161.366 221.577 168.298 187.263 168.298 187.263L172.674 125.723L181 75Z" fill="#8FA89B"/>
<path d="M228.803 258.573L227 234L240.744 231L241.736 257.049C242.785 258.158 243.508 259.54 243.823 261.042C244.137 262.543 244.032 264.103 243.517 265.547C243.003 266.99 242.1 268.26 240.911 269.214C239.721 270.167 238.292 270.767 236.784 270.944C235.277 271.122 233.75 270.871 232.375 270.22C231.001 269.568 229.833 268.542 229.004 267.257C228.175 265.972 227.716 264.478 227.681 262.944C227.646 261.41 228.034 259.896 228.803 258.573H228.803Z" fill="#FFB6B6"/>
<path d="M215 72C215 72 252.39 87.0417 252.705 96.2636C253.02 105.486 252.353 111.074 254 148.002L247.364 246.745C247.364 246.745 221.391 250.578 224.402 244.847C227.413 239.115 226.677 236.277 226.677 236.277C226.677 236.277 221.327 233.732 223.153 226.89C224.978 220.048 220.32 185.237 220.32 185.237L219.977 123.332L215 72Z" fill="#8FA89B"/>
</svg>
