<svg width="22" height="21" viewBox="0 0 22 21" fill="none" xmlns="http://www.w3.org/2000/svg">
<path d="M16.9294 12.82C16.6704 13.071 16.5514 13.434 16.6104 13.79L17.4994 18.71C17.5744 19.127 17.3984 19.549 17.0494 19.79C16.7074 20.04 16.2524 20.07 15.8794 19.87L11.4504 17.56C11.2964 17.478 11.1254 17.434 10.9504 17.429H10.6794C10.5854 17.443 10.4934 17.473 10.4094 17.519L5.97937 19.84C5.76037 19.95 5.51237 19.989 5.26937 19.95C4.67737 19.838 4.28237 19.274 4.37937 18.679L5.26937 13.759C5.32837 13.4 5.20937 13.035 4.95037 12.78L1.33937 9.28C1.03737 8.987 0.932374 8.547 1.07037 8.15C1.20437 7.754 1.54637 7.465 1.95937 7.4L6.92937 6.679C7.30737 6.64 7.63937 6.41 7.80937 6.07L9.99937 1.58C10.0514 1.48 10.1184 1.388 10.1994 1.31L10.2894 1.24C10.3364 1.188 10.3904 1.145 10.4504 1.11L10.5594 1.07L10.7294 1H11.1504C11.5264 1.039 11.8574 1.264 12.0304 1.6L14.2494 6.07C14.4094 6.397 14.7204 6.624 15.0794 6.679L20.0494 7.4C20.4694 7.46 20.8204 7.75 20.9594 8.15C21.0904 8.551 20.9774 8.991 20.6694 9.28L16.9294 12.82Z" stroke="#FFDDB6"/>
</svg>
