<svg width="21" height="20" viewBox="0 0 21 20" fill="none" xmlns="http://www.w3.org/2000/svg">
<path d="M15.9267 11.82C15.6677 12.071 15.5487 12.434 15.6077 12.79L16.4967 17.71C16.5717 18.127 16.3957 18.549 16.0467 18.79C15.7047 19.04 15.2497 19.07 14.8767 18.87L10.4477 16.56C10.2937 16.478 10.1227 16.434 9.94769 16.429H9.67669C9.58269 16.443 9.49069 16.473 9.40669 16.519L4.97669 18.84C4.75769 18.95 4.50969 18.989 4.26669 18.95C3.67469 18.838 3.27969 18.274 3.37669 17.679L4.26669 12.759C4.32569 12.4 4.20669 12.035 3.94769 11.78L0.336688 8.28C0.0346883 7.987 -0.0703117 7.547 0.0676883 7.15C0.201688 6.754 0.543688 6.465 0.956688 6.4L5.92669 5.679C6.30469 5.64 6.63669 5.41 6.80669 5.07L8.99669 0.58C9.04869 0.48 9.11569 0.388 9.19669 0.31L9.28669 0.24C9.33369 0.188 9.38769 0.145 9.44769 0.11L9.55669 0.07L9.72669 0H10.1477C10.5237 0.039 10.8547 0.264 11.0277 0.6L13.2467 5.07C13.4067 5.397 13.7177 5.624 14.0767 5.679L19.0467 6.4C19.4667 6.46 19.8177 6.75 19.9567 7.15C20.0877 7.551 19.9747 7.991 19.6667 8.28L15.9267 11.82Z" fill="#FFDDB6"/>
</svg>
