<svg width="37" height="30" viewBox="0 0 37 30" fill="none" xmlns="http://www.w3.org/2000/svg">
<path d="M12.2225 29.9487C25.8041 29.9487 33.2347 18.7904 33.2347 9.1169C33.2347 8.80321 33.2277 8.48255 33.2136 8.16886C34.6591 7.13248 35.9065 5.84879 36.8973 4.37809C35.5511 4.9719 34.1218 5.35971 32.6582 5.52828C34.1992 4.61247 35.3531 3.17377 35.9059 1.47889C34.4561 2.3307 32.8707 2.93158 31.2175 3.25577C30.1036 2.08236 28.6308 1.30542 27.0268 1.04507C25.4229 0.784728 23.7771 1.05548 22.3439 1.81547C20.9107 2.57546 19.77 3.78235 19.0981 5.24956C18.4261 6.71677 18.2605 8.36256 18.6266 9.9325C15.691 9.78645 12.8192 9.03042 10.1973 7.71341C7.57535 6.3964 5.26185 4.54782 3.40676 2.28751C2.46391 3.89915 2.17539 5.80624 2.59985 7.6212C3.02432 9.43615 4.1299 11.0228 5.69192 12.0586C4.51925 12.0217 3.37227 11.7087 2.34575 11.1454V11.2361C2.3447 12.9273 2.93446 14.5668 4.01477 15.8757C5.09509 17.1847 6.59929 18.0823 8.27168 18.4161C7.18539 18.7107 6.04528 18.7537 4.93957 18.5416C5.41149 19.9961 6.32967 21.2682 7.56596 22.1805C8.80226 23.0928 10.295 23.5996 11.8358 23.6303C9.21994 25.6675 5.98857 26.7724 2.66215 26.7672C2.07224 26.7663 1.48291 26.7305 0.897308 26.6599C4.27659 28.8092 8.2076 29.9508 12.2225 29.9487Z" fill="#FFDDB6"/>
</svg>
