<svg width="33" height="32" viewBox="0 0 33 32" fill="none" xmlns="http://www.w3.org/2000/svg">
<path d="M16.3291 2.84405C20.5443 2.84405 21.0435 2.86254 22.7012 2.93649C24.2419 3.00428 25.0739 3.26311 25.6285 3.47881C26.3618 3.76229 26.8918 4.10739 27.4403 4.65587C27.9949 5.21051 28.3339 5.73433 28.6174 6.46768C28.8331 7.02232 29.0919 7.86044 29.1597 9.39493C29.2336 11.0588 29.2521 11.558 29.2521 15.7671C29.2521 19.9823 29.2336 20.4815 29.1597 22.1393C29.0919 23.6799 28.8331 24.5119 28.6174 25.0665C28.3339 25.7999 27.9888 26.3299 27.4403 26.8783C26.8857 27.433 26.3618 27.7719 25.6285 28.0554C25.0739 28.2711 24.2357 28.5299 22.7012 28.5977C21.0373 28.6716 20.5382 28.6901 16.3291 28.6901C12.1138 28.6901 11.6147 28.6716 9.95691 28.5977C8.41626 28.5299 7.5843 28.2711 7.02966 28.0554C6.29631 27.7719 5.76632 27.4268 5.21785 26.8783C4.66321 26.3237 4.32427 25.7999 4.04078 25.0665C3.82509 24.5119 3.56626 23.6738 3.49847 22.1393C3.42452 20.4754 3.40603 19.9762 3.40603 15.7671C3.40603 11.5519 3.42452 11.0527 3.49847 9.39493C3.56626 7.85427 3.82509 7.02232 4.04078 6.46768C4.32427 5.73433 4.66937 5.20434 5.21785 4.65587C5.77248 4.10123 6.29631 3.76229 7.02966 3.47881C7.5843 3.26311 8.42242 3.00428 9.95691 2.93649C11.6147 2.86254 12.1138 2.84405 16.3291 2.84405ZM16.3291 0.00308037C12.046 0.00308037 11.5099 0.0215683 9.8275 0.0955199C8.15126 0.169471 6.99885 0.440627 6.0005 0.828873C4.95902 1.23561 4.07776 1.77176 3.20267 2.65301C2.32141 3.52811 1.78526 4.40936 1.37853 5.44469C0.990281 6.4492 0.719125 7.59544 0.645174 9.27168C0.571222 10.9602 0.552734 11.4964 0.552734 15.7794C0.552734 20.0625 0.571222 20.5986 0.645174 22.281C0.719125 23.9572 0.990281 25.1096 1.37853 26.108C1.78526 27.1495 2.32141 28.0307 3.20267 28.9058C4.07776 29.7809 4.95902 30.3232 5.99434 30.7238C6.99885 31.1121 8.1451 31.3832 9.82133 31.4572C11.5037 31.5311 12.0399 31.5496 16.3229 31.5496C20.6059 31.5496 21.1421 31.5311 22.8245 31.4572C24.5007 31.3832 25.6531 31.1121 26.6515 30.7238C27.6868 30.3232 28.5681 29.7809 29.4432 28.9058C30.3183 28.0307 30.8606 27.1495 31.2611 26.1142C31.6494 25.1097 31.9205 23.9634 31.9945 22.2872C32.0684 20.6048 32.0869 20.0686 32.0869 15.7856C32.0869 11.5026 32.0684 10.9664 31.9945 9.28401C31.9205 7.60777 31.6494 6.45536 31.2611 5.45701C30.8729 4.40936 30.3367 3.52811 29.4555 2.65301C28.5804 1.77792 27.6991 1.23561 26.6638 0.835036C25.6593 0.44679 24.5131 0.175634 22.8368 0.101683C21.1483 0.0215683 20.6121 0.00308037 16.3291 0.00308037Z" fill="#033D20"/>
<path d="M16.3291 7.67562C11.855 7.67562 8.22522 11.3054 8.22522 15.7795C8.22522 20.2536 11.855 23.8833 16.3291 23.8833C20.8032 23.8833 24.4329 20.2536 24.4329 15.7795C24.4329 11.3054 20.8032 7.67562 16.3291 7.67562ZM16.3291 21.0362C13.4265 21.0362 11.0724 18.6821 11.0724 15.7795C11.0724 12.8769 13.4265 10.5228 16.3291 10.5228C19.2317 10.5228 21.5858 12.8769 21.5858 15.7795C21.5858 18.6821 19.2317 21.0362 16.3291 21.0362Z" fill="#033D20"/>
<path d="M26.6453 7.35493C26.6453 8.40258 25.7949 9.24686 24.7534 9.24686C23.7057 9.24686 22.8615 8.39642 22.8615 7.35493C22.8615 6.30729 23.7119 5.463 24.7534 5.463C25.7949 5.463 26.6453 6.31345 26.6453 7.35493Z" fill="#033D20"/>
</svg>
