<svg width="30" height="30" viewBox="0 0 30 30" fill="none" xmlns="http://www.w3.org/2000/svg">
<path fill-rule="evenodd" clip-rule="evenodd" d="M17.9555 0.326056C17.6329 0.279811 17.3089 0.375192 17.0511 0.580407C16.7861 0.788511 16.6204 1.08911 16.5844 1.42583C16.5081 2.10651 16.9992 2.72215 17.679 2.79875C22.367 3.3219 26.0108 6.97385 26.5379 11.6764C26.6085 12.3065 27.137 12.782 27.7679 12.782C27.8154 12.782 27.8615 12.7791 27.909 12.7733C28.2388 12.7372 28.5326 12.5739 28.74 12.3138C28.946 12.0536 29.0396 11.7299 29.0022 11.399C28.3454 5.53157 23.8043 0.977829 17.9555 0.326056ZM18.0455 5.36175C17.3571 5.23457 16.7248 5.6739 16.5937 6.34591C16.4627 7.01792 16.9034 7.67402 17.5731 7.80553C19.5894 8.19862 21.1463 9.75941 21.5409 11.7826V11.7841C21.6533 12.3665 22.166 12.7899 22.7565 12.7899C22.8357 12.7899 22.9149 12.7827 22.9956 12.7683C23.6653 12.6339 24.106 11.9792 23.9749 11.3057C23.3859 8.28389 21.0599 5.94993 18.0455 5.36175ZM20.3333 19.2459C20.9862 18.8694 21.7236 18.4442 22.6538 18.6421C23.4964 18.8198 26.3682 21.1509 27.1546 21.9588C27.6702 22.4877 27.9568 23.034 28.0014 23.5802C28.0792 25.7234 25.1671 28.1701 24.6371 28.475C23.9328 28.9823 23.1133 29.2381 22.193 29.2381C21.2525 29.2381 20.204 28.9707 19.0605 28.4375C12.8559 25.8477 3.3777 16.5567 0.871691 10.4003C-0.168161 8.10823 -0.175362 6.21794 0.854408 4.79734C1.26488 4.13112 3.60526 1.34627 5.70081 1.43442C6.25818 1.48212 6.79971 1.76826 7.33116 2.28852C8.13481 3.07614 10.4075 5.95637 10.5832 6.80179C10.7776 7.74116 10.3513 8.48831 9.97255 9.14442C9.89176 9.28546 9.78291 9.45284 9.66366 9.63621C9.21106 10.3321 8.60864 11.2584 8.8218 11.8498C10.3499 15.6014 13.8799 18.8748 17.6332 20.4124C18.2136 20.6234 19.1394 20.0167 19.8331 19.562C20.0138 19.4436 20.1788 19.3355 20.3178 19.2548L20.3333 19.2459Z" fill="#033D20"/>
</svg>
