<svg width="32" height="32" viewBox="0 0 32 32" fill="none" xmlns="http://www.w3.org/2000/svg">
<path fill-rule="evenodd" clip-rule="evenodd" d="M31.5527 15.7763C31.5527 24.4894 24.4894 31.5527 15.7763 31.5527C7.06331 31.5527 0 24.4894 0 15.7763C0 7.06331 7.06331 0 15.7763 0C24.4894 0 31.5527 7.06331 31.5527 15.7763ZM16.3417 11.6467C14.8072 12.2849 11.7404 13.6059 7.1413 15.6097C6.39448 15.9067 6.00326 16.1972 5.96764 16.4813C5.90745 16.9614 6.5087 17.1505 7.32744 17.4079C7.43881 17.4429 7.5542 17.4792 7.6725 17.5177C8.47801 17.7795 9.56157 18.0858 10.1249 18.098C10.6358 18.1091 11.2061 17.8984 11.8357 17.4661C16.1329 14.5654 18.351 13.0993 18.4903 13.0676C18.5885 13.0454 18.7247 13.0173 18.8169 13.0993C18.9092 13.1813 18.9001 13.3366 18.8904 13.3782C18.8308 13.6321 16.4707 15.8263 15.2494 16.9617C14.8686 17.3158 14.5985 17.5669 14.5433 17.6242C14.4196 17.7527 14.2936 17.8742 14.1724 17.991C13.4241 18.7124 12.8629 19.2534 14.2035 20.1368C14.8477 20.5613 15.3632 20.9124 15.8775 21.2626C16.4392 21.6451 16.9994 22.0266 17.7242 22.5018C17.9089 22.6228 18.0853 22.7485 18.257 22.871C18.9107 23.337 19.4979 23.7557 20.2234 23.6889C20.645 23.6501 21.0804 23.2537 21.3016 22.0714C21.8242 19.2774 22.8516 13.2237 23.089 10.7291C23.1098 10.5105 23.0836 10.2308 23.0626 10.108C23.0416 9.98523 22.9977 9.81028 22.8381 9.68077C22.649 9.5274 22.3572 9.49505 22.2267 9.49735C21.6334 9.50781 20.723 9.82436 16.3417 11.6467Z" fill="#033D20"/>
</svg>
