<svg width="32" height="26" viewBox="0 0 32 26" fill="none" xmlns="http://www.w3.org/2000/svg">
<path d="M10.305 25.2763C22.0003 25.2763 28.3988 15.6571 28.3988 7.31787C28.3988 7.04744 28.3928 6.77101 28.3807 6.50059C29.6254 5.60716 30.6996 4.50053 31.5527 3.23268C30.3935 3.74459 29.1627 4.07891 27.9024 4.22423C29.2294 3.43474 30.223 2.19448 30.699 0.733374C29.4506 1.46769 28.0854 1.98569 26.6618 2.26517C25.7026 1.2536 24.4343 0.583828 23.0532 0.359393C21.672 0.134959 20.2548 0.368366 19.0206 1.02353C17.7865 1.67869 16.8042 2.71912 16.2256 3.98395C15.647 5.24879 15.5043 6.66758 15.8196 8.02097C13.2918 7.89506 10.8188 7.24331 8.56104 6.10796C6.30327 4.97261 4.31109 3.37901 2.71365 1.43046C1.90175 2.81981 1.65331 4.46385 2.01882 6.02847C2.38432 7.59308 3.33636 8.96087 4.68143 9.85383C3.67163 9.82201 2.68395 9.55217 1.8 9.0666V9.14472C1.7991 10.6027 2.30694 12.0161 3.23722 13.1445C4.16749 14.2729 5.46278 15.0467 6.90289 15.3344C5.96747 15.5884 4.98571 15.6254 4.03357 15.4426C4.43995 16.6965 5.2306 17.7932 6.29519 18.5796C7.35978 19.366 8.64518 19.803 9.97201 19.8294C7.71945 21.5856 4.93688 22.5382 2.07246 22.5337C1.56448 22.5329 1.057 22.502 0.552734 22.4411C3.46267 24.294 6.84771 25.2781 10.305 25.2763Z" fill="#033D20"/>
</svg>
